<?xml version="1.0" encoding="UTF-8" standalone="no"?>
<!-- Created with Inkscape (http://www.inkscape.org/) -->

<svg
   xmlns:dc="http://purl.org/dc/elements/1.1/"
   xmlns:cc="http://creativecommons.org/ns#"
   xmlns:rdf="http://www.w3.org/1999/02/22-rdf-syntax-ns#"
   xmlns:svg="http://www.w3.org/2000/svg"
   xmlns="http://www.w3.org/2000/svg"
   xmlns:sodipodi="http://sodipodi.sourceforge.net/DTD/sodipodi-0.dtd"
   xmlns:inkscape="http://www.inkscape.org/namespaces/inkscape"
   version="1.1"
   id="svg4747"
   xml:space="preserve"
   width="800"
   height="800"
   viewBox="0 0 800 800"
   sodipodi:docname="colorful-balloons-publicdomainvectors.org.svg"
   inkscape:version="0.92.4 (5da689c313, 2019-01-14)"><metadata
     id="metadata4753"><rdf:RDF><cc:Work
         rdf:about=""><dc:format>image/svg+xml</dc:format><dc:type
           rdf:resource="http://purl.org/dc/dcmitype/StillImage" /><dc:title></dc:title></cc:Work></rdf:RDF></metadata><defs
     id="defs4751"><clipPath
       clipPathUnits="userSpaceOnUse"
       id="clipPath4763"><path
         d="M 0,600 H 600 V 0 H 0 Z"
         id="path4761"
         inkscape:connector-curvature="0" /></clipPath></defs><sodipodi:namedview
     pagecolor="#ffffff"
     bordercolor="#666666"
     borderopacity="1"
     objecttolerance="10"
     gridtolerance="10"
     guidetolerance="10"
     inkscape:pageopacity="0"
     inkscape:pageshadow="2"
     inkscape:window-width="1920"
     inkscape:window-height="1018"
     id="namedview4749"
     showgrid="false"
     inkscape:zoom="1.06125"
     inkscape:cx="400"
     inkscape:cy="400"
     inkscape:window-x="-8"
     inkscape:window-y="-8"
     inkscape:window-maximized="1"
     inkscape:current-layer="g4755" /><g
     id="g4755"
     inkscape:groupmode="layer"
     inkscape:label="colorful-balloons-publicdomainvectors.org"
     transform="matrix(1.3333333,0,0,-1.3333333,0,800)"><g
       id="g4757"><g
         id="g4759"
         clip-path="url(#clipPath4763)"><path
           d="m 140.793,71.828 c 22.14,0 40.198,6.711 40.198,14.94 0,8.23 -18.058,14.941 -40.198,14.941 -22.14,0 -40.199,-6.711 -40.199,-14.941 0,-8.229 18.059,-14.94 40.199,-14.94"
           style="fill:#e8e8e7;fill-opacity:1;fill-rule:evenodd;stroke:none"
           id="path4765"
           inkscape:connector-curvature="0" /><path
           d="m 264.588,104.959 c 29.978,0 54.428,9.088 54.428,20.229 0,11.142 -24.45,20.23 -54.428,20.23 -29.977,0 -54.427,-9.088 -54.427,-20.23 0,-11.141 24.45,-20.229 54.427,-20.229"
           style="fill:#e8e8e7;fill-opacity:1;fill-rule:evenodd;stroke:none"
           id="path4767"
           inkscape:connector-curvature="0" /><path
           d="m 439.965,92.105 c 25.303,0 45.941,7.67 45.941,17.075 0,9.404 -20.638,17.076 -45.941,17.076 -25.303,0 -45.94,-7.672 -45.94,-17.076 0,-9.405 20.637,-17.075 45.94,-17.075"
           style="fill:#e8e8e7;fill-opacity:1;fill-rule:evenodd;stroke:none"
           id="path4769"
           inkscape:connector-curvature="0" /><path
           d="m 272.765,241.441 c 11.442,-21.046 5.757,-31.931 -0.731,-44.351 -6.654,-12.738 -14.292,-27.363 1.187,-61.223 l -8.134,9.01 0.332,-12.572 c -17.219,37.668 -2.467,51.373 5.089,65.841 5.361,10.262 3.986,22.165 -5.275,39.196 z"
           style="fill:#334da4;fill-opacity:1;fill-rule:evenodd;stroke:none"
           id="path4771"
           inkscape:connector-curvature="0" /><path
           d="m 272.765,241.441 c 11.442,-21.046 5.757,-31.931 -0.731,-44.351 -3.466,-6.637 -7.2,-13.789 -7.791,-23.906 h -0.002 c 0.484,9.119 1.951,16.568 6.267,24.962 5.361,10.262 3.986,22.165 -5.275,39.196 z"
           style="fill:#758ed0;fill-opacity:1;fill-rule:evenodd;stroke:none"
           id="path4773"
           inkscape:connector-curvature="0" /><path
           d="m 268.999,554.17 c 57.622,0 104.333,-62.759 104.333,-140.177 0,-55.791 -24.262,-103.962 -59.381,-126.524 -4.717,-3.031 -8.004,-6.811 -10.346,-11.903 -6.359,-13.825 -19.468,-23.312 -34.606,-23.312 -15.138,0 -28.245,9.487 -34.605,23.312 -2.341,5.092 -5.629,8.872 -10.345,11.903 -35.121,22.562 -59.382,70.733 -59.382,126.524 0,77.418 46.711,140.177 104.332,140.177"
           style="fill:#fbca07;fill-opacity:1;fill-rule:evenodd;stroke:none"
           id="path4775"
           inkscape:connector-curvature="0" /><path
           d="m 323.406,451.842 c 14.815,3.843 29.336,3.876 43.647,1.139 11.672,-80.781 -13.571,-132.645 -62.623,-165.858 28.945,56.321 38.611,111.436 18.976,164.719"
           style="fill:#fbd623;fill-opacity:1;fill-rule:evenodd;stroke:none"
           id="path4777"
           inkscape:connector-curvature="0" /><path
           d="m 353.162,496.837 c 12.678,-23.209 20.17,-51.849 20.17,-82.844 0,-55.791 -24.262,-103.962 -59.381,-126.524 -4.717,-3.031 -8.004,-6.811 -10.346,-11.903 -6.359,-13.825 -19.468,-23.312 -34.606,-23.312 -15.138,0 -28.245,9.487 -34.605,23.312 -2.316,5.035 -5.557,8.788 -10.187,11.801 100.438,-9.691 159.535,103.425 128.955,209.47"
           style="fill:#dab013;fill-opacity:1;fill-rule:evenodd;stroke:none"
           id="path4779"
           inkscape:connector-curvature="0" /><path
           d="m 321.191,325.716 c 28.145,31.558 42.989,78.776 39.545,128.287 2.11,-0.279 4.215,-0.62 6.317,-1.022 11.672,-80.781 -13.571,-132.645 -62.623,-165.858 6.644,12.93 12.271,25.798 16.761,38.593"
           style="fill:#ebbd0d;fill-opacity:1;fill-rule:evenodd;stroke:none"
           id="path4781"
           inkscape:connector-curvature="0" /><path
           d="m 296.363,536.686 c 36.969,-24.456 47.635,-83.35 23.825,-131.542 -23.81,-48.193 -73.081,-67.436 -110.049,-42.98 -36.967,24.455 -47.634,83.349 -23.823,131.541 23.809,48.193 73.08,67.437 110.047,42.981"
           style="fill:#fbd929;fill-opacity:1;fill-rule:evenodd;stroke:none"
           id="path4783"
           inkscape:connector-curvature="0" /><path
           d="m 332.744,453.775 c -0.349,-7.503 -1.404,-15.091 -3.191,-22.618 -1.578,6.925 -3.619,13.821 -6.147,20.685 3.125,0.811 6.237,1.451 9.338,1.933"
           style="fill:#fbe65c;fill-opacity:1;fill-rule:evenodd;stroke:none"
           id="path4785"
           inkscape:connector-curvature="0" /><path
           d="m 208.184,459.673 c -6.271,-23.667 -6.149,-51.22 -3.478,-80.321 -7.135,5.273 -13.893,10.864 -16.701,19.831 -6.558,27.28 -7.724,51.279 -3.323,71.893 z m 75.085,80.153 c -34.088,-9.664 -58.117,-38.985 -68.95,-62.784 l -25.836,7.394 c 13.065,36.098 42.919,65.803 94.786,55.39"
           style="fill:#fcf2a2;fill-opacity:1;fill-rule:evenodd;stroke:none"
           id="path4787"
           inkscape:connector-curvature="0" /><path
           d="m 236.776,275.922 c 12.143,-31.658 53.71,-27.389 63.951,-0.759 -14.796,-19.788 -49.922,-20.718 -63.951,0.759"
           style="fill:#b0911d;fill-opacity:1;fill-rule:evenodd;stroke:none"
           id="path4789"
           inkscape:connector-curvature="0" /><path
           d="m 227.359,464.797 c -12.682,7.999 -15.66,28.214 -6.651,45.151 9.007,16.937 26.591,24.182 39.272,16.181 12.684,-7.999 15.661,-28.213 6.652,-45.15 -9.008,-16.937 -26.592,-24.182 -39.273,-16.182"
           style="fill:#fbe24c;fill-opacity:1;fill-rule:evenodd;stroke:none"
           id="path4791"
           inkscape:connector-curvature="0" /><path
           d="m 257.096,527.653 c -18.64,-12.346 -32.507,-30.198 -40.696,-46.297 -1.998,8.774 -0.694,19.187 4.308,28.592 8.343,15.685 24.04,23.056 36.388,17.705"
           style="fill:#ffffff;fill-opacity:1;fill-rule:evenodd;stroke:none"
           id="path4793"
           inkscape:connector-curvature="0" /><path
           d="m 268.999,250.973 c 4.63,0 8.453,-5.662 9.034,-12.991 h -18.066 c 0.58,7.329 4.402,12.991 9.032,12.991"
           style="fill:#dab013;fill-opacity:1;fill-rule:evenodd;stroke:none"
           id="path4795"
           inkscape:connector-curvature="0" /><path
           d="m 258.789,238.615 h 20.42 c 1.114,0 2.024,-0.91 2.024,-2.023 0,-1.113 -0.91,-2.024 -2.024,-2.024 h -20.42 c -1.112,0 -2.024,0.911 -2.024,2.024 0,1.113 0.912,2.023 2.024,2.023"
           style="fill:#b0911d;fill-opacity:1;fill-rule:evenodd;stroke:none"
           id="path4797"
           inkscape:connector-curvature="0" /><path
           d="m 263.555,252.523 h 10.891 c 0.626,0 1.137,-0.513 1.137,-1.14 v -2.194 c 0,-0.626 -0.511,-1.138 -1.137,-1.138 h -10.891 c -0.626,0 -1.137,0.512 -1.137,1.138 v 2.194 c 0,0.627 0.511,1.14 1.137,1.14"
           style="fill:#758ed0;fill-opacity:1;fill-rule:evenodd;stroke:none"
           id="path4799"
           inkscape:connector-curvature="0" /><path
           d="m 449.016,201.287 c 9.812,-18.053 4.937,-27.387 -0.627,-38.039 -5.705,-10.924 -12.258,-23.467 1.017,-52.506 l -6.974,7.725 0.285,-10.781 c -14.768,32.306 -2.117,44.06 4.365,56.468 4.596,8.801 3.416,19.008 -4.525,33.616 z"
           style="fill:#4d8630;fill-opacity:1;fill-rule:evenodd;stroke:none"
           id="path4801"
           inkscape:connector-curvature="0" /><path
           d="m 449.016,201.287 c 9.812,-18.053 4.937,-27.387 -0.627,-38.039 -2.973,-5.693 -6.174,-11.826 -6.682,-20.502 l -0.002,-0.002 c 0.416,7.822 1.674,14.211 5.377,21.41 4.596,8.801 3.416,19.008 -4.525,33.616 z"
           style="fill:#8fd351;fill-opacity:1;fill-rule:evenodd;stroke:none"
           id="path4803"
           inkscape:connector-curvature="0" /><path
           d="m 445.787,469.491 c 49.418,0 89.479,-53.824 89.479,-120.22 0,-47.849 -20.807,-89.162 -50.928,-108.511 -4.043,-2.598 -6.863,-5.842 -8.873,-10.209 -5.453,-11.856 -16.695,-19.994 -29.678,-19.994 -12.984,0 -24.224,8.138 -29.678,19.994 -2.009,4.367 -4.83,7.611 -8.875,10.209 -30.119,19.349 -50.925,60.662 -50.925,108.511 0,66.396 40.06,120.22 89.478,120.22"
           style="fill:#f03b1f;fill-opacity:1;fill-rule:evenodd;stroke:none"
           id="path4805"
           inkscape:connector-curvature="0" /><path
           d="m 492.447,381.731 c 12.705,3.296 25.16,3.324 37.434,0.977 10.01,-69.281 -11.639,-113.761 -53.709,-142.245 24.826,48.303 33.115,95.57 16.275,141.268"
           style="fill:#f25a33;fill-opacity:1;fill-rule:evenodd;stroke:none"
           id="path4807"
           inkscape:connector-curvature="0" /><path
           d="m 517.967,420.32 c 10.873,-19.904 17.299,-44.467 17.299,-71.049 0,-47.849 -20.807,-89.162 -50.928,-108.511 -4.043,-2.598 -6.863,-5.842 -8.873,-10.209 -5.453,-11.856 -16.695,-19.994 -29.678,-19.994 -12.984,0 -24.224,8.138 -29.678,19.994 -1.988,4.318 -4.767,7.539 -8.738,10.121 86.139,-8.313 136.822,88.702 110.596,179.648"
           style="fill:#d23322;fill-opacity:1;fill-rule:evenodd;stroke:none"
           id="path4809"
           inkscape:connector-curvature="0" /><path
           d="m 490.549,273.563 c 24.137,27.064 36.865,67.559 33.914,110.022 1.81,-0.239 3.615,-0.533 5.418,-0.877 10.01,-69.281 -11.639,-113.761 -53.709,-142.245 5.699,11.092 10.525,22.125 14.377,33.1"
           style="fill:#f03b1f;fill-opacity:1;fill-rule:evenodd;stroke:none"
           id="path4811"
           inkscape:connector-curvature="0" /><path
           d="m 469.256,454.495 c 31.705,-20.974 40.851,-71.482 20.432,-112.814 -20.42,-41.331 -62.676,-57.834 -94.381,-36.861 -31.705,20.974 -40.852,71.482 -20.432,112.814 20.42,41.332 62.676,57.835 94.381,36.861"
           style="fill:#f25a33;fill-opacity:1;fill-rule:evenodd;stroke:none"
           id="path4813"
           inkscape:connector-curvature="0" /><path
           d="m 500.457,383.388 c -0.301,-6.434 -1.205,-12.942 -2.738,-19.398 -1.354,5.94 -3.102,11.854 -5.272,17.741 2.68,0.696 5.35,1.245 8.01,1.657"
           style="fill:#f4724a;fill-opacity:1;fill-rule:evenodd;stroke:none"
           id="path4815"
           inkscape:connector-curvature="0" /><path
           d="m 393.629,388.447 c -5.377,-20.298 -5.274,-43.927 -2.983,-68.886 -6.119,4.522 -11.916,9.318 -14.322,17.008 -5.625,23.396 -6.625,43.978 -2.849,61.657 z m 64.396,68.741 C 428.791,448.9 408.182,423.754 398.891,403.343 l -22.157,6.341 c 11.204,30.959 36.807,56.435 81.291,47.504"
           style="fill:#f9a88f;fill-opacity:1;fill-rule:evenodd;stroke:none"
           id="path4817"
           inkscape:connector-curvature="0" /><path
           d="m 418.15,230.855 c 10.414,-27.148 46.063,-23.488 54.848,-0.65 -12.691,-16.971 -42.814,-17.767 -54.848,0.65"
           style="fill:#99271e;fill-opacity:1;fill-rule:evenodd;stroke:none"
           id="path4819"
           inkscape:connector-curvature="0" /><path
           d="m 410.076,392.841 c -10.877,6.861 -13.431,24.198 -5.707,38.723 7.727,14.526 22.809,20.74 33.684,13.878 10.875,-6.86 13.429,-24.197 5.705,-38.723 -7.729,-14.525 -22.807,-20.739 -33.682,-13.878"
           style="fill:#f4724a;fill-opacity:1;fill-rule:evenodd;stroke:none"
           id="path4821"
           inkscape:connector-curvature="0" /><path
           d="m 435.576,446.75 c -15.984,-10.59 -27.877,-25.9 -34.9,-39.707 -1.715,7.524 -0.594,16.456 3.693,24.521 7.156,13.453 20.619,19.774 31.207,15.186"
           style="fill:#fcd4c9;fill-opacity:1;fill-rule:evenodd;stroke:none"
           id="path4823"
           inkscape:connector-curvature="0" /><path
           d="m 445.787,209.459 c 3.971,0 7.248,-4.855 7.746,-11.141 h -15.492 c 0.498,6.286 3.775,11.141 7.746,11.141"
           style="fill:#d23322;fill-opacity:1;fill-rule:evenodd;stroke:none"
           id="path4825"
           inkscape:connector-curvature="0" /><path
           d="m 437.031,198.861 h 17.512 c 0.955,0 1.736,-0.781 1.736,-1.734 v -0.002 c 0,-0.955 -0.781,-1.734 -1.736,-1.734 h -17.512 c -0.957,0 -1.738,0.779 -1.738,1.734 v 0.002 c 0,0.953 0.781,1.734 1.738,1.734"
           style="fill:#99271e;fill-opacity:1;fill-rule:evenodd;stroke:none"
           id="path4827"
           inkscape:connector-curvature="0" /><path
           d="m 441.117,210.787 h 9.34 c 0.537,0 0.977,-0.439 0.977,-0.974 v -1.883 c 0,-0.537 -0.44,-0.977 -0.977,-0.977 h -9.34 c -0.537,0 -0.974,0.44 -0.974,0.977 v 1.883 c 0,0.535 0.437,0.974 0.974,0.974"
           style="fill:#8fd351;fill-opacity:1;fill-rule:evenodd;stroke:none"
           id="path4829"
           inkscape:connector-curvature="0" /><path
           d="m 141.554,176.512 c 8.718,-16.039 4.386,-24.332 -0.557,-33.795 -5.07,-9.705 -10.891,-20.85 0.903,-46.651 l -6.196,6.866 0.253,-9.58 c -13.121,28.703 -1.881,39.144 3.877,50.169 4.084,7.819 3.037,16.889 -4.019,29.866 z"
           style="fill:#7c201a;fill-opacity:1;fill-rule:evenodd;stroke:none"
           id="path4831"
           inkscape:connector-curvature="0" /><path
           d="m 141.554,176.512 c 8.718,-16.039 4.386,-24.332 -0.557,-33.795 -2.642,-5.057 -5.486,-10.508 -5.937,-18.217 h -0.001 c 0.368,6.947 1.487,12.625 4.775,19.021 4.084,7.819 3.037,16.889 -4.019,29.866 z"
           style="fill:#cc2d23;fill-opacity:1;fill-rule:evenodd;stroke:none"
           id="path4833"
           inkscape:connector-curvature="0" /><path
           d="m 138.684,414.801 c 43.906,0 79.499,-47.82 79.499,-106.81 0,-42.512 -18.487,-79.216 -45.246,-96.409 -3.594,-2.307 -6.1,-5.189 -7.885,-9.068 -4.845,-10.535 -14.833,-17.766 -26.368,-17.766 -11.534,0 -21.522,7.231 -26.368,17.766 -1.784,3.879 -4.29,6.761 -7.883,9.068 -26.76,17.193 -45.247,53.897 -45.247,96.409 0,58.99 35.593,106.81 79.498,106.81"
           style="fill:#8fd351;fill-opacity:1;fill-rule:evenodd;stroke:none"
           id="path4835"
           inkscape:connector-curvature="0" /><path
           d="m 180.141,336.831 c 11.289,2.927 22.354,2.953 33.256,0.867 8.895,-61.552 -10.338,-101.073 -47.716,-126.378 22.056,42.912 29.42,84.909 14.46,125.511"
           style="fill:#b0df74;fill-opacity:1;fill-rule:evenodd;stroke:none"
           id="path4837"
           inkscape:connector-curvature="0" /><path
           d="m 202.813,371.116 c 9.661,-17.685 15.37,-39.508 15.37,-63.125 0,-42.512 -18.487,-79.216 -45.246,-96.409 -3.594,-2.307 -6.1,-5.189 -7.885,-9.068 -4.845,-10.535 -14.833,-17.766 -26.368,-17.766 -11.534,0 -21.522,7.231 -26.368,17.766 -1.764,3.836 -4.233,6.695 -7.762,8.99 76.53,-7.383 121.562,78.809 98.259,159.612"
           style="fill:#6db236;fill-opacity:1;fill-rule:evenodd;stroke:none"
           id="path4839"
           inkscape:connector-curvature="0" /><path
           d="m 178.454,240.727 c 21.443,24.046 32.755,60.024 30.131,97.75 1.608,-0.212 3.213,-0.473 4.812,-0.779 8.895,-61.552 -10.338,-101.073 -47.716,-126.378 5.064,9.852 9.35,19.657 12.773,29.407"
           style="fill:#8fd351;fill-opacity:1;fill-rule:evenodd;stroke:none"
           id="path4841"
           inkscape:connector-curvature="0" /><path
           d="m 159.535,401.479 c 28.168,-18.635 36.297,-63.51 18.154,-100.23 -18.143,-36.724 -55.686,-51.386 -83.854,-32.751 -28.168,18.635 -36.296,63.51 -18.154,100.231 18.143,36.722 55.686,51.384 83.854,32.75"
           style="fill:#b0df74;fill-opacity:1;fill-rule:evenodd;stroke:none"
           id="path4843"
           inkscape:connector-curvature="0" /><path
           d="m 187.256,338.303 c -0.265,-5.717 -1.071,-11.5 -2.431,-17.235 -1.202,5.276 -2.757,10.532 -4.684,15.763 2.381,0.618 4.753,1.106 7.115,1.472"
           style="fill:#cae998;fill-opacity:1;fill-rule:evenodd;stroke:none"
           id="path4845"
           inkscape:connector-curvature="0" /><path
           d="m 92.345,342.798 c -4.779,-18.035 -4.686,-39.029 -2.651,-61.204 -5.436,4.019 -10.586,8.279 -12.725,15.112 -4.997,20.787 -5.886,39.073 -2.532,54.779 z m 57.212,61.074 c -25.973,-7.364 -44.283,-29.705 -52.537,-47.84 l -19.686,5.634 c 9.954,27.505 32.702,50.14 72.223,42.206"
           style="fill:#cae998;fill-opacity:1;fill-rule:evenodd;stroke:none"
           id="path4847"
           inkscape:connector-curvature="0" /><path
           d="m 114.131,202.783 c 9.253,-24.121 40.925,-20.869 48.73,-0.578 -11.275,-15.078 -38.04,-15.787 -48.73,0.578"
           style="fill:#508c31;fill-opacity:1;fill-rule:evenodd;stroke:none"
           id="path4849"
           inkscape:connector-curvature="0" /><path
           d="m 106.956,346.701 c -9.664,6.095 -11.933,21.499 -5.068,34.404 6.864,12.905 20.261,18.426 29.925,12.331 9.663,-6.096 11.932,-21.499 5.068,-34.404 -6.864,-12.906 -20.262,-18.426 -29.925,-12.331"
           style="fill:#cae998;fill-opacity:1;fill-rule:evenodd;stroke:none"
           id="path4851"
           inkscape:connector-curvature="0" /><path
           d="m 129.614,394.596 c -14.202,-9.408 -24.769,-23.01 -31.009,-35.277 -1.523,6.685 -0.529,14.621 3.283,21.786 6.357,11.953 18.318,17.569 27.726,13.491"
           style="fill:#ffffff;fill-opacity:1;fill-rule:evenodd;stroke:none"
           id="path4853"
           inkscape:connector-curvature="0" /><path
           d="m 138.684,183.773 c 3.528,0 6.441,-4.314 6.883,-9.896 h -13.765 c 0.442,5.582 3.355,9.896 6.882,9.896"
           style="fill:#6db236;fill-opacity:1;fill-rule:evenodd;stroke:none"
           id="path4855"
           inkscape:connector-curvature="0" /><path
           d="m 130.905,174.357 h 15.559 c 0.849,0 1.542,-0.693 1.542,-1.541 v -0.002 c 0,-0.847 -0.693,-1.541 -1.542,-1.541 h -15.559 c -0.849,0 -1.543,0.694 -1.543,1.541 v 0.002 c 0,0.848 0.694,1.541 1.543,1.541"
           style="fill:#508c31;fill-opacity:1;fill-rule:evenodd;stroke:none"
           id="path4857"
           inkscape:connector-curvature="0" /><path
           d="m 134.536,184.953 h 8.298 c 0.478,0 0.868,-0.39 0.868,-0.867 v -1.672 c 0,-0.476 -0.39,-0.867 -0.868,-0.867 h -8.298 c -0.477,0 -0.868,0.391 -0.868,0.867 v 1.672 c 0,0.477 0.391,0.867 0.868,0.867"
           style="fill:#cc2d23;fill-opacity:1;fill-rule:evenodd;stroke:none"
           id="path4859"
           inkscape:connector-curvature="0" /></g></g></g></svg>